<svg width="50" height="52" viewBox="0 0 50 52" fill="none" xmlns="http://www.w3.org/2000/svg">
<path d="M8.42321 31.8421C9.2735 52.883 45.1653 49.0898 36.1739 29.5612C33.6686 24.1199 39.496 17.8345 41.4232 14.8421C43.9899 10.8569 43.9232 3.34214 37.4232 6.34214C32.8232 8.46523 26.9603 22.6079 28.9232 27.8421C30.4232 31.8421 28.4946 36.8421 22.9232 36.8421C18.4232 36.8421 15.9232 32.6231 16.4232 28.3421C16.9215 24.076 20.9232 20.8421 19.4232 12.8421C17.4364 2.24581 4.05367 3.6115 10.3987 14.8421C13.3987 20.1521 8.11419 24.1953 8.42321 31.8421Z" fill="url(#paint0_linear_54_19)" stroke="#00A3FF" stroke-width="0.2"/>
<defs>
<linearGradient id="paint0_linear_54_19" x1="25.6993" y1="5.65214" x2="25.6993" y2="46" gradientUnits="userSpaceOnUse">
<stop stop-color="#00A3FF"/>
<stop offset="1" stop-color="#00F9BD"/>
</linearGradient>
</defs>
</svg>
